<?xml version="1.0" encoding="UTF-8" standalone="no"?>
<svg
   viewBox="0 0 500 500"
   version="1.1"
   id="svg16"
   sodipodi:docname="lcfw-light.svg"
   inkscape:version="1.1 (c68e22c387, 2021-05-23)"
   xmlns:inkscape="http://www.inkscape.org/namespaces/inkscape"
   xmlns:sodipodi="http://sodipodi.sourceforge.net/DTD/sodipodi-0.dtd"
   xmlns="http://www.w3.org/2000/svg"
   xmlns:svg="http://www.w3.org/2000/svg">
  <sodipodi:namedview
     id="namedview18"
     pagecolor="#ffffff"
     bordercolor="#666666"
     borderopacity="1.0"
     inkscape:pageshadow="2"
     inkscape:pageopacity="0.0"
     inkscape:pagecheckerboard="0"
     showgrid="false"
     inkscape:zoom="75.304044"
     inkscape:cx="499.48181"
     inkscape:cy="499.67436"
     inkscape:window-width="1920"
     inkscape:window-height="1017"
     inkscape:window-x="-8"
     inkscape:window-y="-8"
     inkscape:window-maximized="1"
     inkscape:current-layer="svg16" />
  <defs
     id="defs4">
    <style
       id="style2">.cls-1,.cls-2,.cls-3{fill:#fff;}.cls-1{opacity:0.7;}.cls-2{opacity:0.2;}.cls-3{opacity:0.4;}</style>
  </defs>
  <title
     id="title6">Recurso 3</title>
  <g
     id="Capa_2"
     data-name="Capa 2"
     transform="scale(1.1071815)">
    <g
       id="Capa_1-2"
       data-name="Capa 1">
      <path
         class="cls-1"
         d="M 225.74,0.11 C 101.07,0.11 0,101.18 0,225.85 0,350.52 101.07,451.59 225.74,451.59 350.41,451.59 451.48,350.52 451.48,225.85 451.48,101.18 350.41,0.11 225.74,0.11 Z M 337,311.46 q -34.47,44.63 -90.42,53.48 c -29.52,4.63 -57.35,-0.38 -83.95,-13.45 C 137,338.9 117.45,319.67 103.83,295 91.72,273 87,248.87 87.2,223.66 a 154.79,154.79 0 0 1 15.56,-66.09 97.61,97.61 0 0 1 10.24,-16.4 c 1.3,-1.74 2.59,-2.12 4.67,-1.34 22.76,8.54 43.12,20.92 60.45,38 a 67.51,67.51 0 0 0 73,14.58 c 11.39,-4.58 20,-12.59 28.88,-20.51 15.72,-14.06 33.66,-24.38 53.36,-31.81 2.82,-1.07 4.18,-0.49 5.76,1.74 12.7,17.89 20.08,37.86 23.48,59.42 a 146.5,146.5 0 0 1 1.9,24.31 c -0.42,31.44 -8,60.68 -27.5,85.9 z"
         id="path8" />
      <path
         class="cls-2"
         d="m 431.62,137.89 a 5.89,5.89 0 0 0 2.24,0.36 A 225.81,225.81 0 0 0 225.7,0 C 132,0 51.71,57 17.53,138.28 a 11.54,11.54 0 0 0 2.58,-0.63 c 13.13,-3.43 26.4,-5.92 40,-6.3 16.67,-0.47 32.94,2 49,6.39 3.1,0.84 6.36,1.63 8.63,-1.55 4.65,-6.51 10.45,-11.84 16.27,-17.29 a 116.64,116.64 0 0 1 30.4,-20.29 c 14.15,-6.67 27.54,-14 37.76,-26.47 C 213,58.88 220,44 224.2,27.58 c 1,-3.91 -0.22,-8.28 2.44,-13 0.35,2.73 0.41,4.22 0.73,5.66 4.93,22 15.75,40.89 31.08,57.31 9.3,10 20.83,16.8 32.72,22.94 15.9,8.21 28.84,20 40.82,32.88 5.07,5.47 5.56,6 12.63,3.91 12.4,-3.74 25.17,-5.32 38.06,-5.86 16.68,-0.74 32.95,1.89 48.94,6.47 z"
         id="path10" />
      <path
         class="cls-3"
         d="m 339.09,141.78 c -1.58,-2.23 -2.94,-2.8 -5.75,-1.74 -19.7,7.43 -37.65,17.76 -53.37,31.81 -8.86,7.92 -17.48,15.93 -28.88,20.51 a 67.51,67.51 0 0 1 -73,-14.58 c -17.33,-17.09 -37.69,-29.47 -60.45,-38 -2.08,-0.78 -3.36,-0.4 -4.67,1.34 a 96.91,96.91 0 0 0 -10.24,16.4 154.64,154.64 0 0 0 -15.55,66.08 c -0.21,25.21 4.52,49.31 16.63,71.29 13.62,24.72 33.2,43.95 58.81,56.54 26.6,13.07 54.43,18.08 83.95,13.45 q 56,-8.76 90.42,-53.48 c 19.48,-25.22 27.06,-54.47 27.48,-85.89 a 146.49,146.49 0 0 0 -1.89,-24.31 c -3.41,-21.56 -10.79,-41.53 -23.49,-59.42 z"
         id="path12" />
    </g>
  </g>
</svg>
