<svg xmlns="http://www.w3.org/2000/svg" viewBox="0 0 500 500"><defs><style>.cls-1,.cls-2,.cls-3{fill:#fff;}.cls-1{opacity:0.7;}.cls-2{opacity:0.2;}.cls-3{opacity:0.4;}</style></defs><title>Recurso 3</title><g id="Capa_2" data-name="Capa 2"><g id="Capa_1-2" data-name="Capa 1"><path class="cls-1" d="M225.74.11C101.07.11,0,101.18,0,225.85S101.07,451.59,225.74,451.59,451.48,350.52,451.48,225.85,350.41.11,225.74.11ZM337,311.46q-34.47,44.63-90.42,53.48c-29.52,4.63-57.35-.38-83.95-13.45C137,338.9,117.45,319.67,103.83,295,91.72,273,87,248.87,87.2,223.66a154.79,154.79,0,0,1,15.56-66.09A97.61,97.61,0,0,1,113,141.17c1.3-1.74,2.59-2.12,4.67-1.34,22.76,8.54,43.12,20.92,60.45,38a67.51,67.51,0,0,0,73,14.58c11.39-4.58,20-12.59,28.88-20.51,15.72-14.06,33.66-24.38,53.36-31.81,2.82-1.07,4.18-.49,5.76,1.74,12.7,17.89,20.08,37.86,23.48,59.42a146.5,146.5,0,0,1,1.9,24.31C364.08,257,356.5,286.24,337,311.46Z"/><path class="cls-2" d="M431.62,137.89a5.89,5.89,0,0,0,2.24.36A225.81,225.81,0,0,0,225.7,0C132,0,51.71,57,17.53,138.28a11.54,11.54,0,0,0,2.58-.63c13.13-3.43,26.4-5.92,40-6.3,16.67-.47,32.94,2,49,6.39,3.1.84,6.36,1.63,8.63-1.55,4.65-6.51,10.45-11.84,16.27-17.29a116.64,116.64,0,0,1,30.4-20.29c14.15-6.67,27.54-14,37.76-26.47C213,58.88,220,44,224.2,27.58c1-3.91-.22-8.28,2.44-13,.35,2.73.41,4.22.73,5.66,4.93,22,15.75,40.89,31.08,57.31,9.3,10,20.83,16.8,32.72,22.94,15.9,8.21,28.84,20,40.82,32.88,5.07,5.47,5.56,6,12.63,3.91,12.4-3.74,25.17-5.32,38.06-5.86C399.36,130.68,415.63,133.31,431.62,137.89Z"/><path class="cls-3" d="M339.09,141.78c-1.58-2.23-2.94-2.8-5.75-1.74-19.7,7.43-37.65,17.76-53.37,31.81-8.86,7.92-17.48,15.93-28.88,20.51a67.51,67.51,0,0,1-73-14.58c-17.33-17.09-37.69-29.47-60.45-38-2.08-.78-3.36-.4-4.67,1.34a96.91,96.91,0,0,0-10.24,16.4A154.64,154.64,0,0,0,87.18,223.6c-.21,25.21,4.52,49.31,16.63,71.29,13.62,24.72,33.2,43.95,58.81,56.54,26.6,13.07,54.43,18.08,83.95,13.45q56-8.76,90.42-53.48c19.48-25.22,27.06-54.47,27.48-85.89a146.49,146.49,0,0,0-1.89-24.31C359.17,179.64,351.79,159.67,339.09,141.78Z"/></g></g></svg>